<svg width="77" height="77" viewBox="0 0 77 77" fill="none" xmlns="http://www.w3.org/2000/svg">
<path d="M38.5 77C59.763 77 77 59.763 77 38.5C77 17.237 59.763 0 38.5 0C17.237 0 0 17.237 0 38.5C0 59.763 17.237 77 38.5 77Z" fill="#20DB50"/>
<path fill-rule="evenodd" clip-rule="evenodd" d="M39.1738 56.1258C40.8669 56.0081 42.5456 55.7342 44.1884 55.3077C46.2157 55.9263 48.3589 56.0663 50.4494 55.7167C50.5322 55.7034 50.6159 55.6969 50.6997 55.6975C51.4456 55.6975 52.425 56.1306 53.8519 57.045V55.5411C53.8522 55.2809 53.9216 55.0254 54.0531 54.8009C54.1846 54.5764 54.3734 54.3909 54.6002 54.2633C55.221 53.912 55.7985 53.5078 56.3255 53.0626C58.4045 51.3013 59.5788 48.9527 59.5788 46.4647C59.5788 45.6297 59.4464 44.8188 59.1962 44.044C59.8242 42.8722 60.3319 41.6402 60.7049 40.3624C61.9108 42.1696 62.5569 44.2922 62.5625 46.4647C62.5625 49.8455 60.9888 52.9977 58.2673 55.3028C57.8131 55.6873 57.3349 56.0425 56.8356 56.3664V59.8819C56.8356 61.0923 55.44 61.7877 54.4558 61.0682C53.5252 60.3725 52.5616 59.7221 51.5683 59.1192C51.2839 58.9489 50.988 58.7986 50.6828 58.6692C49.8647 58.7919 49.0273 58.8545 48.1828 58.8545C44.7851 58.8545 41.6474 57.8366 39.1762 56.1258H39.1738ZM21.2087 49.0947C16.9159 45.4541 14.4375 40.4948 14.4375 35.1794C14.4375 24.32 24.6833 15.6406 37.1934 15.6406C49.7059 15.6406 59.9517 24.32 59.9517 35.1794C59.9517 46.0412 49.7035 54.7205 37.1934 54.7205C35.7882 54.7205 34.3973 54.6123 33.0354 54.3957C32.4459 54.5353 30.0902 55.9357 26.6949 58.4141C25.4653 59.3141 23.7208 58.4454 23.7208 56.9319V50.9355C22.8416 50.3812 22.0022 49.7661 21.2087 49.0947ZM33.1172 50.6973C33.2207 50.6973 33.3266 50.7045 33.43 50.7213C34.6572 50.9283 35.9181 51.0342 37.1934 51.0342C47.7617 51.0342 56.2196 43.8683 56.2196 35.1794C56.2196 26.4928 47.7617 19.327 37.1934 19.327C26.63 19.327 18.1672 26.4928 18.1672 35.1794C18.1672 39.3807 20.1427 43.3366 23.6366 46.2962C24.5149 47.0374 25.4798 47.7111 26.5145 48.2983C27.0944 48.6255 27.4529 49.2367 27.4529 49.896V53.3538C30.1383 51.5515 31.9045 50.6973 33.1172 50.6973ZM27.4938 38.8682C25.8455 38.8682 24.5101 37.5447 24.5101 35.9181C24.5101 34.2891 25.8455 32.968 27.4938 32.968C29.1421 32.968 30.4776 34.2891 30.4776 35.9181C30.4776 37.5471 29.1421 38.8682 27.4938 38.8682ZM37.1934 38.8682C35.5451 38.8682 34.2097 37.5447 34.2097 35.9181C34.2097 34.2891 35.5451 32.968 37.1934 32.968C38.8417 32.968 40.1772 34.2891 40.1772 35.9181C40.1772 37.5471 38.8417 38.8682 37.1934 38.8682ZM46.893 38.8682C45.2447 38.8682 43.9092 37.5447 43.9092 35.9181C43.9092 34.2891 45.2447 32.968 46.893 32.968C48.5413 32.968 49.8768 34.2891 49.8768 35.9181C49.8768 37.5471 48.5413 38.8682 46.893 38.8682Z" fill="white"/>
</svg>
