<svg width="82" height="70" viewBox="0 0 82 70" fill="none" xmlns="http://www.w3.org/2000/svg">
<path fill-rule="evenodd" clip-rule="evenodd" d="M49.3144 29.076C49.2956 27.721 49.1167 26.3543 48.7589 24.9782C47.5042 20.1492 41.9064 17.049 35.9484 16.3201C29.9927 15.5912 23.7993 17.2499 21.4123 21.4505C20.047 23.8521 19.8587 25.9221 20.4166 27.6673C20.9721 29.4031 22.2903 30.8422 24.0793 31.9636C29.0675 35.0872 37.8034 35.725 41.7887 34.419C43.6319 33.8139 45.4327 33.085 47.1864 32.251C46.1836 37.7108 42.4477 42.8833 37.4619 47.5441C26.6264 57.6741 9.81169 65.3626 0.654562 68.1895C0.162573 68.3413 -0.110516 68.86 0.0424948 69.3483C0.195506 69.8365 0.718088 70.1099 1.21008 69.958C10.5485 67.0751 27.6905 59.223 38.7402 48.8921C44.4487 43.5561 48.5164 37.5496 49.2109 31.2347C62.1156 24.3918 72.7134 11.977 81.774 1.52932C82.1106 1.14384 82.0659 0.557424 81.6751 0.22334C81.2844 -0.108407 80.6958 -0.066373 80.3592 0.321444C71.6681 10.3416 61.5812 22.2612 49.3144 29.076ZM47.4383 30.0689C47.509 28.5457 47.3582 26.9991 46.951 25.4385C45.8658 21.2589 40.8776 18.7872 35.72 18.1564C32.5585 17.7709 29.3077 18.0887 26.7583 19.2194C25.1552 19.9296 23.8345 20.9599 23.0389 22.3616C21.9937 24.2003 21.7677 25.7726 22.1961 27.1066C22.6245 28.4499 23.6887 29.5292 25.0752 30.396C29.6208 33.2439 37.575 33.849 41.2025 32.6598C43.3423 31.959 45.4186 31.0852 47.4383 30.0689Z" fill="#097224"/>
</svg>
