<svg width="1440" height="88" viewBox="0 0 1440 88" fill="none" xmlns="http://www.w3.org/2000/svg">
<path d="M14.0049 5.69579L0 7.97411V88H1440V0.85437L1428 2.27831L1417.49 0.85437H1375.48L1359.97 2.27831H1339.97L1331.96 4.27184L1317.96 2.27831H1306.95L1296.95 4.27184H1282.95L1271.94 2.27831L1262.94 4.27184L1246.93 4.84142L1227.93 4.27184L1212.42 4.84142L1196.92 7.97411L1167.91 4.27184L1155.4 4.84142H1128.39L1120.89 5.69579L1110.39 4.27184H1096.38L1087.88 2.27831H1077.87L1065.87 4.27184L1047.36 -7.62939e-06L1029.36 2.27831L1009.85 -7.62939e-06L994.845 2.27831H982.341H961.834L954.331 4.27184H939.826L919.319 2.27831H911.817L906.315 4.27184H891.31L878.805 4.84142L877.305 4.27184L871.803 5.98058L847.794 4.27184H842.292H829.788L817.284 2.27831H803.279H780.771C773.569 3.87314 761.098 2.94283 755.762 2.27831C749.76 2.94283 737.256 4.27184 735.255 4.27184H726.752C725.952 4.27184 720.75 2.94283 718.249 2.27831L691.24 5.69579L684.738 4.27184L663.23 5.69579V3.41748L632.72 5.69579H618.215H608.711L595.707 8.82848H554.192L540.688 5.69579H532.185H516.179H506.676C503.175 6.74002 495.472 8.82848 492.671 8.82848C489.87 8.82848 481.501 6.74002 477.666 5.69579H458.659C455.325 7.68932 446.455 11.1068 437.652 8.82848C428.849 6.55016 416.311 5.79073 411.143 5.69579L404.641 2.84789C401.806 3.7972 395.237 5.69579 391.636 5.69579C388.035 5.69579 382.8 3.7972 380.632 2.84789C379.298 1.99353 373.83 0.797409 362.626 2.84789C351.422 4.89838 339.618 3.70226 335.116 2.84789H323.612H313.109H307.107L281.598 5.69579H255.089H243.084L229.08 2.84789H203.071H181.563H163.057L137.548 5.69579L131.546 0.28479H118.541L95.033 2.84789H80.0278H61.5214C58.3203 2.84789 45.8493 4.7465 40.0139 5.69579L22.5078 7.97411L14.0049 9.96763V5.69579Z" fill="white"/>
<path d="M14.0049 5.69579L0 7.97411V88H1440V0.85437L1428 2.27831L1417.49 0.85437H1375.48L1359.97 2.27831H1339.97L1331.96 4.27184L1317.96 2.27831H1306.95L1296.95 4.27184H1282.95L1271.94 2.27831L1262.94 4.27184L1246.93 4.84142L1227.93 4.27184L1212.42 4.84142L1196.92 7.97411L1167.91 4.27184L1155.4 4.84142H1128.39L1120.89 5.69579L1110.39 4.27184H1096.38L1087.88 2.27831H1077.87L1065.87 4.27184L1047.36 -7.62939e-06L1029.36 2.27831L1009.85 -7.62939e-06L994.845 2.27831H982.341H961.834L954.331 4.27184H939.826L919.319 2.27831H911.817L906.315 4.27184H891.31L878.805 4.84142L877.305 4.27184L871.803 5.98058L847.794 4.27184H842.292H829.788L817.284 2.27831H803.279H780.771C773.569 3.87314 761.098 2.94283 755.762 2.27831C749.76 2.94283 737.256 4.27184 735.255 4.27184H726.752C725.952 4.27184 720.75 2.94283 718.249 2.27831L691.24 5.69579L684.738 4.27184L663.23 5.69579V3.41748L632.72 5.69579H618.215H608.711L595.707 8.82848H554.192L540.688 5.69579H532.185H516.179H506.676C503.175 6.74002 495.472 8.82848 492.671 8.82848C489.87 8.82848 481.501 6.74002 477.666 5.69579H458.659C455.325 7.68932 446.455 11.1068 437.652 8.82848C428.849 6.55016 416.311 5.79073 411.143 5.69579L404.641 2.84789C401.806 3.7972 395.237 5.69579 391.636 5.69579C388.035 5.69579 382.8 3.7972 380.632 2.84789C379.298 1.99353 373.83 0.797409 362.626 2.84789C351.422 4.89838 339.618 3.70226 335.116 2.84789H323.612H313.109H307.107L281.598 5.69579H255.089H243.084L229.08 2.84789H203.071H181.563H163.057L137.548 5.69579L131.546 0.28479H118.541L95.033 2.84789H80.0278H61.5214C58.3203 2.84789 45.8493 4.7465 40.0139 5.69579L22.5078 7.97411L14.0049 9.96763V5.69579Z" fill="white"/>
</svg>
