<svg width="1440" height="140" viewBox="0 0 1440 140" fill="none" xmlns="http://www.w3.org/2000/svg">
<path d="M14.0049 9.06149L0 12.6861V140H1440V1.35922L1428 3.6246L1417.49 1.35922H1375.48L1359.97 3.6246H1339.97L1331.96 6.79611L1317.96 3.6246H1306.95L1296.95 6.79611H1282.95L1271.94 3.6246L1262.94 6.79611L1246.93 7.70227L1227.93 6.79611L1212.42 7.70227L1196.92 12.6861L1167.91 6.79611L1155.4 7.70227H1128.39L1120.89 9.06149L1110.39 6.79611H1096.38L1087.88 3.6246H1077.87L1065.87 6.79611L1047.36 0L1029.36 3.6246L1009.85 0L994.845 3.6246H982.341H961.834L954.331 6.79611H939.826L919.319 3.6246H911.817L906.315 6.79611H891.31L878.805 7.70227L877.305 6.79611L871.803 9.51457L847.794 6.79611H842.292H829.788L817.284 3.6246H803.279H780.771C773.569 6.16182 761.098 4.68178 755.762 3.6246C749.76 4.68178 737.256 6.79611 735.255 6.79611H726.752C725.952 6.79611 720.75 4.68178 718.249 3.6246L691.24 9.06149L684.738 6.79611L663.23 9.06149V5.43689L632.72 9.06149H618.215H608.711L595.707 14.0453H554.192L540.688 9.06149H532.185H516.179H506.676C503.175 10.7228 495.472 14.0453 492.671 14.0453C489.87 14.0453 481.501 10.7228 477.666 9.06149H458.659C455.325 12.233 446.455 17.6699 437.652 14.0453C428.849 10.4207 416.311 9.21251 411.143 9.06149L404.641 4.53075C401.806 6.041 395.237 9.06149 391.636 9.06149C388.035 9.06149 382.8 6.041 380.632 4.53075C379.298 3.17152 373.83 1.26862 362.626 4.53075C351.422 7.79288 339.618 5.88997 335.116 4.53075H323.612H313.109H307.107L281.598 9.06149H255.089H243.084L229.08 4.53075H203.071H181.563H163.057L137.548 9.06149L131.546 0.453079H118.541L95.033 4.53075H80.0278H61.5214C58.3203 4.53075 45.8493 7.55124 40.0139 9.06149L22.5078 12.6861L14.0049 15.8576V9.06149Z" fill="white"/>
</svg>
