<svg width="1440" height="153" viewBox="0 0 1440 153" fill="none" xmlns="http://www.w3.org/2000/svg">
<path d="M14.0049 143.097L0 139.136V0H1440V151.515L1428 149.039L1417.49 151.515H1375.48L1359.97 149.039H1339.97L1331.96 145.573L1317.96 149.039H1306.95L1296.95 145.573H1282.95L1271.94 149.039L1262.94 145.573L1246.93 144.583L1227.93 145.573L1212.42 144.583L1196.92 139.136L1167.91 145.573L1155.4 144.583H1128.39L1120.89 143.097L1110.39 145.573H1096.38L1087.88 149.039H1077.87L1065.87 145.573L1047.36 153L1029.36 149.039L1009.85 153L994.845 149.039H982.341H961.834L954.331 145.573H939.826L919.319 149.039H911.817L906.315 145.573H891.31L878.805 144.583L877.305 145.573L871.803 142.602L847.794 145.573H842.292H829.788L817.284 149.039H803.279H780.771C773.569 146.266 761.098 147.883 755.762 149.039C749.76 147.883 737.256 145.573 735.255 145.573H726.752C725.952 145.573 720.75 147.883 718.249 149.039L691.24 143.097L684.738 145.573L663.23 143.097V147.058L632.72 143.097H618.215H608.711L595.707 137.65H554.192L540.688 143.097H532.185H516.179H506.676C503.175 141.282 495.472 137.65 492.671 137.65C489.87 137.65 481.501 141.282 477.666 143.097H458.659C455.325 139.631 446.455 133.689 437.652 137.65C428.849 141.612 416.311 142.932 411.143 143.097L404.641 148.049C401.806 146.398 395.237 143.097 391.636 143.097C388.035 143.097 382.8 146.398 380.632 148.049C379.298 149.534 373.83 151.614 362.626 148.049C351.422 144.483 339.618 146.563 335.116 148.049H323.612H313.109H307.107L281.598 143.097H255.089H243.084L229.08 148.049H203.071H181.563H163.057L137.548 143.097L131.546 152.505H118.541L95.033 148.049H80.0278H61.5214C58.3203 148.049 45.8493 144.748 40.0139 143.097L22.5078 139.136L14.0049 135.67V143.097Z" fill="white"/>
<path d="M14.0049 143.097L0 139.136V0H1440V151.515L1428 149.039L1417.49 151.515H1375.48L1359.97 149.039H1339.97L1331.96 145.573L1317.96 149.039H1306.95L1296.95 145.573H1282.95L1271.94 149.039L1262.94 145.573L1246.93 144.583L1227.93 145.573L1212.42 144.583L1196.92 139.136L1167.91 145.573L1155.4 144.583H1128.39L1120.89 143.097L1110.39 145.573H1096.38L1087.88 149.039H1077.87L1065.87 145.573L1047.36 153L1029.36 149.039L1009.85 153L994.845 149.039H982.341H961.834L954.331 145.573H939.826L919.319 149.039H911.817L906.315 145.573H891.31L878.805 144.583L877.305 145.573L871.803 142.602L847.794 145.573H842.292H829.788L817.284 149.039H803.279H780.771C773.569 146.266 761.098 147.883 755.762 149.039C749.76 147.883 737.256 145.573 735.255 145.573H726.752C725.952 145.573 720.75 147.883 718.249 149.039L691.24 143.097L684.738 145.573L663.23 143.097V147.058L632.72 143.097H618.215H608.711L595.707 137.65H554.192L540.688 143.097H532.185H516.179H506.676C503.175 141.282 495.472 137.65 492.671 137.65C489.87 137.65 481.501 141.282 477.666 143.097H458.659C455.325 139.631 446.455 133.689 437.652 137.65C428.849 141.612 416.311 142.932 411.143 143.097L404.641 148.049C401.806 146.398 395.237 143.097 391.636 143.097C388.035 143.097 382.8 146.398 380.632 148.049C379.298 149.534 373.83 151.614 362.626 148.049C351.422 144.483 339.618 146.563 335.116 148.049H323.612H313.109H307.107L281.598 143.097H255.089H243.084L229.08 148.049H203.071H181.563H163.057L137.548 143.097L131.546 152.505H118.541L95.033 148.049H80.0278H61.5214C58.3203 148.049 45.8493 144.748 40.0139 143.097L22.5078 139.136L14.0049 135.67V143.097Z" fill="white"/>
</svg>
