<svg width="26" height="26" viewBox="0 0 26 26" fill="none" xmlns="http://www.w3.org/2000/svg">
<g clip-path="url(#clip0_195_94)">
<path fill-rule="evenodd" clip-rule="evenodd" d="M13.0004 16.3531C12.5896 16.3531 12.1828 16.2722 11.8033 16.115C11.4238 15.9578 11.0789 15.7274 10.7885 15.4369C10.498 15.1464 10.2676 14.8016 10.1104 14.4221C9.95318 14.0426 9.87227 13.6358 9.87227 13.225C9.87227 12.8142 9.95318 12.4074 10.1104 12.0279C10.2676 11.6484 10.498 11.3036 10.7885 11.0131C11.0789 10.7226 11.4238 10.4922 11.8033 10.335C12.1828 10.1778 12.5896 10.0969 13.0004 10.0969C13.83 10.0969 14.6257 10.4264 15.2123 11.0131C15.7989 11.5997 16.1285 12.3954 16.1285 13.225C16.1285 14.0546 15.7989 14.8503 15.2123 15.4369C14.6257 16.0236 13.83 16.3531 13.0004 16.3531ZM13.0004 8.40625C11.7224 8.40625 10.4967 8.91394 9.59302 9.81763C8.68933 10.7213 8.18164 11.947 8.18164 13.225C8.18164 14.503 8.68933 15.7287 9.59302 16.6324C10.4967 17.5361 11.7224 18.0438 13.0004 18.0438C14.2784 18.0438 15.5041 17.5361 16.4078 16.6324C17.3115 15.7287 17.8191 14.503 17.8191 13.225C17.8191 11.947 17.3115 10.7213 16.4078 9.81763C15.5041 8.91394 14.2784 8.40625 13.0004 8.40625ZM19.221 8.31875C19.221 8.62085 19.101 8.91058 18.8874 9.12419C18.6738 9.33781 18.384 9.45781 18.082 9.45781C17.7799 9.45781 17.4901 9.33781 17.2765 9.12419C17.0629 8.91058 16.9429 8.62085 16.9429 8.31875C16.9429 8.01665 17.0629 7.72693 17.2765 7.51331C17.4901 7.2997 17.7799 7.17969 18.082 7.17969C18.384 7.17969 18.6738 7.2997 18.8874 7.51331C19.101 7.72693 19.221 8.01665 19.221 8.31875Z" fill="#20DB50"/>
<path d="M20.7677 2.40332H5.97363C4.1787 2.40332 2.72363 3.85839 2.72363 5.65332V19.9534C2.72363 21.7483 4.1787 23.2034 5.97363 23.2034H20.7677C22.5627 23.2034 24.0177 21.7483 24.0177 19.9534V5.65332C24.0177 3.85839 22.5627 2.40332 20.7677 2.40332Z" stroke="#20DB50" stroke-width="1.5"/>
</g>
<defs>
<clipPath id="clip0_195_94">
<rect width="26" height="25" fill="white" transform="translate(0 0.724609)"/>
</clipPath>
</defs>
</svg>
