<svg width="27" height="26" viewBox="0 0 27 26" fill="none" xmlns="http://www.w3.org/2000/svg">
<g clip-path="url(#clip0_195_100)">
<path d="M8.93056 6.39551C8.14641 6.39551 7.57715 6.93624 7.57715 7.68128C7.57715 8.42633 8.13507 8.96629 8.90368 8.96629C9.2713 8.97824 9.62864 8.84382 9.89725 8.59256C10.0183 8.47286 10.1137 8.32988 10.178 8.17225C10.2422 8.01462 10.2738 7.84561 10.2709 7.67542C10.2529 6.92184 9.70185 6.39551 8.93056 6.39551Z" fill="#14BC3F"/>
<path d="M9.54775 8.23351C9.3722 8.39242 9.14104 8.47564 8.90448 8.46509C8.41904 8.46509 8.08008 8.1432 8.08008 7.68221C8.08008 7.21345 8.42235 6.89844 8.93149 6.89844C9.42941 6.89844 9.75818 7.20848 9.76939 7.68233C9.77142 7.78439 9.75284 7.88581 9.71475 7.98051C9.67667 8.07522 9.61987 8.16127 9.54775 8.23351Z" fill="#14BC3F"/>
<path d="M10.0737 9.39062H7.81738V17.686H10.0737V9.39062Z" fill="#14BC3F"/>
<path d="M8.32129 9.8916H9.57356V17.1828H8.32129V9.8916Z" fill="#14BC3F"/>
<path d="M16.0241 9.39062C14.9778 9.39062 14.3372 9.75174 13.966 10.0912L13.8955 9.39062H11.3428V17.6859H13.8429V13.326C13.8531 13.0946 13.8948 12.8656 13.9667 12.6454C14.2687 11.9949 14.6762 11.9949 15.2932 11.9949C16.0039 11.9949 16.6042 12.6614 16.6042 13.4501V17.6859H19.1145V12.9989C19.1145 10.5197 17.5124 9.39062 16.0241 9.39062Z" fill="#14BC3F"/>
<path d="M18.6113 17.1828H17.1052V13.4491C17.1052 12.3881 16.2749 11.4917 15.2921 11.4917C14.6615 11.4917 13.9469 11.4917 13.5101 12.4329C13.4068 12.7194 13.3493 13.0203 13.3397 13.3246V17.1824H11.8438V9.89173H13.4405L13.5424 10.9069H13.9537L14.0272 10.7882C14.1947 10.5187 14.7242 9.8916 16.0225 9.8916C17.269 9.8916 18.6107 10.8636 18.6107 12.9979L18.6113 17.1828Z" fill="#14BC3F"/>
<path d="M22.125 0.905273H5.125C3.33007 0.905273 1.875 2.36035 1.875 4.15527V20.6135C1.875 22.4084 3.33007 23.8635 5.125 23.8635H22.125C23.9199 23.8635 25.375 22.4084 25.375 20.6135V4.15527C25.375 2.36035 23.9199 0.905273 22.125 0.905273Z" stroke="#14BC3F" stroke-width="1.5"/>
</g>
<defs>
<clipPath id="clip0_195_100">
<rect width="26" height="25" fill="white" transform="translate(0.625 0.0224609)"/>
</clipPath>
</defs>
</svg>
