<svg width="335" height="30" viewBox="0 0 335 30" fill="none" xmlns="http://www.w3.org/2000/svg">
<path fill-rule="evenodd" clip-rule="evenodd" d="M200.487 13.7022C155.905 14.235 111.3 16.3488 66.9116 20.1271C45.808 21.9237 21.3004 21.6991 0.83248 27.8245C-0.187383 28.1327 0.00684666 29.0575 0.0289216 29.15C0.0730715 29.3393 0.258548 29.969 1.07091 29.9998C1.15921 30.0042 1.78168 29.9162 2.02009 29.8853C8.0642 29.0927 14.0863 28.168 20.1348 27.4194C41.0177 24.8257 61.9624 22.8661 82.938 21.1487C110.779 18.8677 138.858 17.6522 166.774 16.7011C182.054 16.1814 197.701 16.8728 213.03 15.7983C218.659 15.7675 224.288 15.7632 229.917 15.7808C253.449 15.8645 276.955 16.754 300.447 17.9738C308.001 18.3657 313.762 18.7884 321.157 19.0746C323.965 19.1847 328.42 19.2596 331.519 19.3081C331.974 19.3169 333.135 19.3256 333.617 19.33C333.665 19.3388 333.714 19.3388 333.767 19.3388C333.952 19.3388 334.04 19.3256 334.058 19.3256C335.109 19.1715 335.012 18.1807 334.985 18.031C334.981 18.0001 334.822 17.1634 333.917 17.1326C333.701 17.1238 332.151 17.1151 331.555 17.1063C328.473 17.0578 324.036 16.983 321.241 16.8773C313.86 16.591 308.102 16.1683 300.562 15.7764C277.034 14.5566 253.493 13.6627 229.926 13.579C227.048 13.5702 224.165 13.5658 221.286 13.5702C221.189 13.3192 220.973 13.0374 220.496 12.9141C220.05 12.7996 216.858 12.6983 215.626 12.597C206.509 11.8484 206.778 11.8836 196.748 11.2715C181.556 10.3424 179.242 10.1309 163.441 9.73898C134.739 9.0256 106.024 9.08292 77.3177 9.15338C63.1456 9.19301 47.9713 10.1486 33.5828 8.36512C38.3245 7.81027 43.0839 7.40515 47.8344 6.94278C64.0551 5.3663 80.289 4.38866 96.5759 3.7017C135.644 2.05476 174.774 1.39868 213.829 3.6445C205.516 3.72377 197.207 3.90866 188.893 4.02756C155.052 4.52076 120.885 4.1509 87.1146 6.70937C86.5097 6.75781 86.055 7.28621 86.0991 7.8895C86.1433 8.4972 86.6775 8.95079 87.2823 8.90675C121.008 6.34828 155.127 6.72255 188.924 6.22935C201.48 6.0488 214.032 5.72296 226.588 5.81984C230.897 5.85507 235.207 6.01363 239.516 6.06647C240.368 6.07968 242.562 6.24702 242.875 6.17656C243.569 6.02243 243.719 5.51158 243.763 5.26058C243.785 5.11086 243.855 4.24776 242.796 3.93951C235.564 1.8346 222.218 1.93148 215.189 1.51754C175.653 -0.816354 136.037 -0.164642 96.4832 1.49991C80.1566 2.19127 63.8829 3.17333 47.6181 4.75421C41.936 5.30466 36.2407 5.78024 30.5807 6.51123C29.6668 6.63013 27.6138 6.8019 26.6204 6.98245C26.2054 7.05731 25.9052 7.16292 25.7727 7.23778C25.2562 7.52842 25.1635 7.95117 25.1635 8.2374C25.1591 8.45758 25.2518 9.23261 26.3335 9.44398C42.8146 12.663 60.7483 11.3992 77.3221 11.3552C106.011 11.2847 134.704 11.2274 163.388 11.9408C179.149 12.3327 181.454 12.5398 196.615 13.4689C198.112 13.557 199.379 13.6361 200.487 13.7022Z" fill="#097224"/>
</svg>
